<?xml version="1.0" encoding="UTF-8" standalone="no"?>
<!-- Created with Inkscape (http://www.inkscape.org/) -->

<svg
   width="17.262985mm"
   height="3.1770706mm"
   viewBox="0 0 17.262985 3.1770706"
   version="1.1"
   id="svg5"
   xmlns="http://www.w3.org/2000/svg"
   xmlns:svg="http://www.w3.org/2000/svg">
  <defs
     id="defs2" />
  <g
     id="layer1"
     transform="translate(-79.650476,-86.421079)">
    <path
       id="rect531"
       style="fill:#52C9ED;stroke-width:0.388716"
       d="m 89.496346,86.421082 v 3.177067 h 7.417118 v -3.177067 z m 2.077393,0.409277 c 0.247127,0 0.448206,0.07304 0.602547,0.219108 0.09187,0.08636 0.160771,0.21038 0.206706,0.37207 l -0.40411,0.09664 c -0.02389,-0.104731 -0.07361,-0.187413 -0.149862,-0.248047 -0.07533,-0.06063 -0.167546,-0.09095 -0.275952,-0.09095 -0.149747,0 -0.271129,0.05374 -0.364836,0.16123 -0.09279,0.107488 -0.139526,0.281235 -0.139526,0.521932 0,0.255397 0.04611,0.437297 0.137976,0.545703 0.09187,0.108405 0.211127,0.162781 0.358118,0.162781 0.108406,0 0.201997,-0.03445 0.280086,-0.103353 0.07809,-0.0689 0.133958,-0.177136 0.167948,-0.325044 l 0.395325,0.125056 c -0.06063,0.220486 -0.161345,0.384473 -0.302824,0.49196 -0.14056,0.106569 -0.319589,0.160197 -0.536401,0.160197 -0.268258,0 -0.488745,-0.09158 -0.661458,-0.274402 -0.172715,-0.183738 -0.258899,-0.43454 -0.258899,-0.752409 0,-0.33624 0.08682,-0.597322 0.260449,-0.782898 0.173633,-0.186494 0.401755,-0.279569 0.684713,-0.279569 z m 1.161686,0.03462 h 0.387573 V 87.2231 h -0.387573 z m 1.190625,0.03979 v 0.516764 h 0.264583 v 0.308509 H 93.92605 v 0.590144 c 0,0.11943 0.0026,0.189079 0.0072,0.20929 0.0055,0.01929 0.01667,0.0352 0.03411,0.04806 0.01837,0.01286 0.04042,0.01964 0.06615,0.01964 0.03583,0 0.08808,-0.0124 0.156063,-0.03721 l 0.03307,0.30024 c -0.09003,0.03859 -0.192007,0.05788 -0.305925,0.05788 -0.06982,0 -0.133095,-0.01166 -0.189136,-0.03462 -0.05604,-0.02389 -0.09738,-0.0542 -0.124023,-0.09095 -0.02573,-0.03767 -0.04364,-0.08802 -0.05374,-0.151412 -0.0083,-0.04501 -0.0124,-0.135964 -0.0124,-0.272851 V 87.730049 H 93.359652 V 87.42154 h 0.177767 v -0.290938 z m -1.190625,0.516764 h 0.387573 v 1.463477 h -0.387573 z m 1.540991,0 h 0.411861 l 0.34985,1.039213 0.342098,-1.039213 h 0.401009 l -0.516765,1.408183 -0.0925,0.255282 c -0.03399,0.08544 -0.06644,0.15032 -0.09767,0.195337 -0.03032,0.04501 -0.06603,0.08147 -0.106453,0.109037 -0.03951,0.02848 -0.08849,0.05053 -0.147278,0.06615 -0.05788,0.01562 -0.123394,0.02325 -0.196887,0.02325 -0.07442,0 -0.147452,-0.0076 -0.219108,-0.02325 l -0.03462,-0.303341 c 0.06063,0.01194 0.115123,0.01809 0.163815,0.01809 0.09003,0 0.156809,-0.02681 0.199987,-0.0801 0.04318,-0.05237 0.07625,-0.119258 0.09922,-0.201021 z" />
    <text
       xml:space="preserve"
       style="font-weight:bold;font-size:2.82223px;font-family:Arial;-inkscape-font-specification:'Arial, Bold';fill:#52C9ED;stroke-width:0.457999"
       x="79.441017"
       y="88.955872"
       id="text240"><tspan
         id="tspan238"
         style="fill:#52C9ED;stroke-width:0.458"
         x="79.441017"
         y="88.955872">Nairobi</tspan></text>
  </g>
</svg>
